<?xml version="1.0" standalone="no"?>
<svg xmlns:xlink="http://www.w3.org/1999/xlink" id="wave" style="transform:rotate(0deg); transition: 0.3s" viewBox="0 0 1440 310" version="1.1" xmlns="http://www.w3.org/2000/svg"><defs><linearGradient id="sw-gradient-0" x1="0" x2="0" y1="1" y2="0"><stop stop-color="rgba(243, 106, 62, 1)" offset="0%"/><stop stop-color="rgba(255, 179, 11, 1)" offset="100%"/></linearGradient></defs><path style="transform:translate(0, 0px); opacity:1" fill="url(#sw-gradient-0)" d="M0,31L40,41.3C80,52,160,72,240,72.3C320,72,400,52,480,56.8C560,62,640,93,720,124C800,155,880,186,960,196.3C1040,207,1120,196,1200,175.7C1280,155,1360,124,1440,93C1520,62,1600,31,1680,62C1760,93,1840,186,1920,196.3C2000,207,2080,134,2160,108.5C2240,83,2320,103,2400,108.5C2480,114,2560,103,2640,93C2720,83,2800,72,2880,82.7C2960,93,3040,124,3120,149.8C3200,176,3280,196,3360,201.5C3440,207,3520,196,3600,160.2C3680,124,3760,62,3840,51.7C3920,41,4000,83,4080,82.7C4160,83,4240,41,4320,51.7C4400,62,4480,124,4560,129.2C4640,134,4720,83,4800,62C4880,41,4960,52,5040,62C5120,72,5200,83,5280,118.8C5360,155,5440,217,5520,201.5C5600,186,5680,93,5720,46.5L5760,0L5760,310L5720,310C5680,310,5600,310,5520,310C5440,310,5360,310,5280,310C5200,310,5120,310,5040,310C4960,310,4880,310,4800,310C4720,310,4640,310,4560,310C4480,310,4400,310,4320,310C4240,310,4160,310,4080,310C4000,310,3920,310,3840,310C3760,310,3680,310,3600,310C3520,310,3440,310,3360,310C3280,310,3200,310,3120,310C3040,310,2960,310,2880,310C2800,310,2720,310,2640,310C2560,310,2480,310,2400,310C2320,310,2240,310,2160,310C2080,310,2000,310,1920,310C1840,310,1760,310,1680,310C1600,310,1520,310,1440,310C1360,310,1280,310,1200,310C1120,310,1040,310,960,310C880,310,800,310,720,310C640,310,560,310,480,310C400,310,320,310,240,310C160,310,80,310,40,310L0,310Z"/><defs><linearGradient id="sw-gradient-1" x1="0" x2="0" y1="1" y2="0"><stop stop-color="rgba(243, 106, 62, 1)" offset="0%"/><stop stop-color="rgba(255, 179, 11, 1)" offset="100%"/></linearGradient></defs><path style="transform:translate(0, 50px); opacity:0.9" fill="url(#sw-gradient-1)" d="M0,186L40,180.8C80,176,160,165,240,155C320,145,400,134,480,118.8C560,103,640,83,720,72.3C800,62,880,62,960,72.3C1040,83,1120,103,1200,139.5C1280,176,1360,227,1440,253.2C1520,279,1600,279,1680,258.3C1760,238,1840,196,1920,165.3C2000,134,2080,114,2160,134.3C2240,155,2320,217,2400,217C2480,217,2560,155,2640,113.7C2720,72,2800,52,2880,72.3C2960,93,3040,155,3120,175.7C3200,196,3280,176,3360,175.7C3440,176,3520,196,3600,217C3680,238,3760,258,3840,253.2C3920,248,4000,217,4080,170.5C4160,124,4240,62,4320,67.2C4400,72,4480,145,4560,160.2C4640,176,4720,134,4800,113.7C4880,93,4960,93,5040,82.7C5120,72,5200,52,5280,36.2C5360,21,5440,10,5520,10.3C5600,10,5680,21,5720,25.8L5760,31L5760,310L5720,310C5680,310,5600,310,5520,310C5440,310,5360,310,5280,310C5200,310,5120,310,5040,310C4960,310,4880,310,4800,310C4720,310,4640,310,4560,310C4480,310,4400,310,4320,310C4240,310,4160,310,4080,310C4000,310,3920,310,3840,310C3760,310,3680,310,3600,310C3520,310,3440,310,3360,310C3280,310,3200,310,3120,310C3040,310,2960,310,2880,310C2800,310,2720,310,2640,310C2560,310,2480,310,2400,310C2320,310,2240,310,2160,310C2080,310,2000,310,1920,310C1840,310,1760,310,1680,310C1600,310,1520,310,1440,310C1360,310,1280,310,1200,310C1120,310,1040,310,960,310C880,310,800,310,720,310C640,310,560,310,480,310C400,310,320,310,240,310C160,310,80,310,40,310L0,310Z"/><defs><linearGradient id="sw-gradient-2" x1="0" x2="0" y1="1" y2="0"><stop stop-color="rgba(243, 106, 62, 1)" offset="0%"/><stop stop-color="rgba(255, 179, 11, 1)" offset="100%"/></linearGradient></defs><path style="transform:translate(0, 100px); opacity:0.8" fill="url(#sw-gradient-2)" d="M0,186L40,170.5C80,155,160,124,240,139.5C320,155,400,217,480,217C560,217,640,155,720,134.3C800,114,880,134,960,124C1040,114,1120,72,1200,56.8C1280,41,1360,52,1440,62C1520,72,1600,83,1680,72.3C1760,62,1840,31,1920,31C2000,31,2080,62,2160,108.5C2240,155,2320,217,2400,201.5C2480,186,2560,93,2640,77.5C2720,62,2800,124,2880,139.5C2960,155,3040,124,3120,139.5C3200,155,3280,217,3360,222.2C3440,227,3520,176,3600,134.3C3680,93,3760,62,3840,41.3C3920,21,4000,10,4080,46.5C4160,83,4240,165,4320,175.7C4400,186,4480,124,4560,103.3C4640,83,4720,103,4800,98.2C4880,93,4960,62,5040,72.3C5120,83,5200,134,5280,149.8C5360,165,5440,145,5520,129.2C5600,114,5680,103,5720,98.2L5760,93L5760,310L5720,310C5680,310,5600,310,5520,310C5440,310,5360,310,5280,310C5200,310,5120,310,5040,310C4960,310,4880,310,4800,310C4720,310,4640,310,4560,310C4480,310,4400,310,4320,310C4240,310,4160,310,4080,310C4000,310,3920,310,3840,310C3760,310,3680,310,3600,310C3520,310,3440,310,3360,310C3280,310,3200,310,3120,310C3040,310,2960,310,2880,310C2800,310,2720,310,2640,310C2560,310,2480,310,2400,310C2320,310,2240,310,2160,310C2080,310,2000,310,1920,310C1840,310,1760,310,1680,310C1600,310,1520,310,1440,310C1360,310,1280,310,1200,310C1120,310,1040,310,960,310C880,310,800,310,720,310C640,310,560,310,480,310C400,310,320,310,240,310C160,310,80,310,40,310L0,310Z"/></svg>