<?xml version="1.0" standalone="no"?>
<svg xmlns:xlink="http://www.w3.org/1999/xlink" id="wave" style="transform:rotate(0deg); transition: 0.3s" viewBox="0 0 1440 320" version="1.1" xmlns="http://www.w3.org/2000/svg"><defs><linearGradient id="sw-gradient-0" x1="0" x2="0" y1="1" y2="0"><stop stop-color="rgba(243, 106, 62, 1)" offset="0%"/><stop stop-color="rgba(255, 179, 11, 1)" offset="100%"/></linearGradient></defs><path style="transform:translate(0, 0px); opacity:1" fill="url(#sw-gradient-0)" d="M0,160L40,170.7C80,181,160,203,240,181.3C320,160,400,96,480,96C560,96,640,160,720,192C800,224,880,224,960,213.3C1040,203,1120,181,1200,165.3C1280,149,1360,139,1440,154.7C1520,171,1600,213,1680,213.3C1760,213,1840,171,1920,149.3C2000,128,2080,128,2160,112C2240,96,2320,64,2400,42.7C2480,21,2560,11,2640,32C2720,53,2800,107,2880,149.3C2960,192,3040,224,3120,197.3C3200,171,3280,85,3360,90.7C3440,96,3520,192,3600,240C3680,288,3760,288,3840,261.3C3920,235,4000,181,4080,138.7C4160,96,4240,64,4320,53.3C4400,43,4480,53,4560,80C4640,107,4720,149,4800,186.7C4880,224,4960,256,5040,234.7C5120,213,5200,139,5280,128C5360,117,5440,171,5520,165.3C5600,160,5680,96,5720,64L5760,32L5760,320L5720,320C5680,320,5600,320,5520,320C5440,320,5360,320,5280,320C5200,320,5120,320,5040,320C4960,320,4880,320,4800,320C4720,320,4640,320,4560,320C4480,320,4400,320,4320,320C4240,320,4160,320,4080,320C4000,320,3920,320,3840,320C3760,320,3680,320,3600,320C3520,320,3440,320,3360,320C3280,320,3200,320,3120,320C3040,320,2960,320,2880,320C2800,320,2720,320,2640,320C2560,320,2480,320,2400,320C2320,320,2240,320,2160,320C2080,320,2000,320,1920,320C1840,320,1760,320,1680,320C1600,320,1520,320,1440,320C1360,320,1280,320,1200,320C1120,320,1040,320,960,320C880,320,800,320,720,320C640,320,560,320,480,320C400,320,320,320,240,320C160,320,80,320,40,320L0,320Z"/><defs><linearGradient id="sw-gradient-1" x1="0" x2="0" y1="1" y2="0"><stop stop-color="rgba(243, 106, 62, 1)" offset="0%"/><stop stop-color="rgba(255, 179, 11, 1)" offset="100%"/></linearGradient></defs><path style="transform:translate(0, 50px); opacity:0.9" fill="url(#sw-gradient-1)" d="M0,96L40,90.7C80,85,160,75,240,85.3C320,96,400,128,480,117.3C560,107,640,53,720,74.7C800,96,880,192,960,213.3C1040,235,1120,181,1200,149.3C1280,117,1360,107,1440,122.7C1520,139,1600,181,1680,192C1760,203,1840,181,1920,170.7C2000,160,2080,160,2160,170.7C2240,181,2320,203,2400,192C2480,181,2560,139,2640,138.7C2720,139,2800,181,2880,213.3C2960,245,3040,267,3120,245.3C3200,224,3280,160,3360,154.7C3440,149,3520,203,3600,229.3C3680,256,3760,256,3840,250.7C3920,245,4000,235,4080,208C4160,181,4240,139,4320,106.7C4400,75,4480,53,4560,42.7C4640,32,4720,32,4800,74.7C4880,117,4960,203,5040,245.3C5120,288,5200,288,5280,277.3C5360,267,5440,245,5520,213.3C5600,181,5680,139,5720,117.3L5760,96L5760,320L5720,320C5680,320,5600,320,5520,320C5440,320,5360,320,5280,320C5200,320,5120,320,5040,320C4960,320,4880,320,4800,320C4720,320,4640,320,4560,320C4480,320,4400,320,4320,320C4240,320,4160,320,4080,320C4000,320,3920,320,3840,320C3760,320,3680,320,3600,320C3520,320,3440,320,3360,320C3280,320,3200,320,3120,320C3040,320,2960,320,2880,320C2800,320,2720,320,2640,320C2560,320,2480,320,2400,320C2320,320,2240,320,2160,320C2080,320,2000,320,1920,320C1840,320,1760,320,1680,320C1600,320,1520,320,1440,320C1360,320,1280,320,1200,320C1120,320,1040,320,960,320C880,320,800,320,720,320C640,320,560,320,480,320C400,320,320,320,240,320C160,320,80,320,40,320L0,320Z"/><defs><linearGradient id="sw-gradient-2" x1="0" x2="0" y1="1" y2="0"><stop stop-color="rgba(243, 106, 62, 1)" offset="0%"/><stop stop-color="rgba(255, 179, 11, 1)" offset="100%"/></linearGradient></defs><path style="transform:translate(0, 100px); opacity:0.8" fill="url(#sw-gradient-2)" d="M0,192L40,165.3C80,139,160,85,240,69.3C320,53,400,75,480,117.3C560,160,640,224,720,213.3C800,203,880,117,960,74.7C1040,32,1120,32,1200,53.3C1280,75,1360,117,1440,160C1520,203,1600,245,1680,245.3C1760,245,1840,203,1920,170.7C2000,139,2080,117,2160,138.7C2240,160,2320,224,2400,250.7C2480,277,2560,267,2640,234.7C2720,203,2800,149,2880,133.3C2960,117,3040,139,3120,133.3C3200,128,3280,96,3360,74.7C3440,53,3520,43,3600,74.7C3680,107,3760,181,3840,176C3920,171,4000,85,4080,74.7C4160,64,4240,128,4320,144C4400,160,4480,128,4560,101.3C4640,75,4720,53,4800,85.3C4880,117,4960,203,5040,208C5120,213,5200,139,5280,96C5360,53,5440,43,5520,53.3C5600,64,5680,96,5720,112L5760,128L5760,320L5720,320C5680,320,5600,320,5520,320C5440,320,5360,320,5280,320C5200,320,5120,320,5040,320C4960,320,4880,320,4800,320C4720,320,4640,320,4560,320C4480,320,4400,320,4320,320C4240,320,4160,320,4080,320C4000,320,3920,320,3840,320C3760,320,3680,320,3600,320C3520,320,3440,320,3360,320C3280,320,3200,320,3120,320C3040,320,2960,320,2880,320C2800,320,2720,320,2640,320C2560,320,2480,320,2400,320C2320,320,2240,320,2160,320C2080,320,2000,320,1920,320C1840,320,1760,320,1680,320C1600,320,1520,320,1440,320C1360,320,1280,320,1200,320C1120,320,1040,320,960,320C880,320,800,320,720,320C640,320,560,320,480,320C400,320,320,320,240,320C160,320,80,320,40,320L0,320Z"/></svg>