<?xml version="1.0" standalone="no"?>
<svg xmlns:xlink="http://www.w3.org/1999/xlink" id="wave" style="transform:rotate(0deg); transition: 0.3s" viewBox="0 0 1440 250" version="1.1" xmlns="http://www.w3.org/2000/svg"><defs><linearGradient id="sw-gradient-0" x1="0" x2="0" y1="1" y2="0"><stop stop-color="rgba(243, 106, 62, 1)" offset="0%"/><stop stop-color="rgba(255, 179, 11, 1)" offset="100%"/></linearGradient></defs><path style="transform:translate(0, 0px); opacity:1" fill="url(#sw-gradient-0)" d="M0,175L40,166.7C80,158,160,142,240,125C320,108,400,92,480,95.8C560,100,640,125,720,145.8C800,167,880,183,960,191.7C1040,200,1120,200,1200,183.3C1280,167,1360,133,1440,108.3C1520,83,1600,67,1680,66.7C1760,67,1840,83,1920,100C2000,117,2080,133,2160,116.7C2240,100,2320,50,2400,58.3C2480,67,2560,133,2640,162.5C2720,192,2800,183,2880,150C2960,117,3040,58,3120,54.2C3200,50,3280,100,3360,120.8C3440,142,3520,133,3600,116.7C3680,100,3760,75,3840,66.7C3920,58,4000,67,4080,91.7C4160,117,4240,158,4320,145.8C4400,133,4480,67,4560,50C4640,33,4720,67,4800,75C4880,83,4960,67,5040,70.8C5120,75,5200,100,5280,112.5C5360,125,5440,125,5520,108.3C5600,92,5680,58,5720,41.7L5760,25L5760,250L5720,250C5680,250,5600,250,5520,250C5440,250,5360,250,5280,250C5200,250,5120,250,5040,250C4960,250,4880,250,4800,250C4720,250,4640,250,4560,250C4480,250,4400,250,4320,250C4240,250,4160,250,4080,250C4000,250,3920,250,3840,250C3760,250,3680,250,3600,250C3520,250,3440,250,3360,250C3280,250,3200,250,3120,250C3040,250,2960,250,2880,250C2800,250,2720,250,2640,250C2560,250,2480,250,2400,250C2320,250,2240,250,2160,250C2080,250,2000,250,1920,250C1840,250,1760,250,1680,250C1600,250,1520,250,1440,250C1360,250,1280,250,1200,250C1120,250,1040,250,960,250C880,250,800,250,720,250C640,250,560,250,480,250C400,250,320,250,240,250C160,250,80,250,40,250L0,250Z"/><defs><linearGradient id="sw-gradient-1" x1="0" x2="0" y1="1" y2="0"><stop stop-color="rgba(243, 106, 62, 1)" offset="0%"/><stop stop-color="rgba(255, 179, 11, 1)" offset="100%"/></linearGradient></defs><path style="transform:translate(0, 50px); opacity:0.9" fill="url(#sw-gradient-1)" d="M0,0L40,0C80,0,160,0,240,29.2C320,58,400,117,480,150C560,183,640,192,720,175C800,158,880,117,960,100C1040,83,1120,92,1200,104.2C1280,117,1360,133,1440,116.7C1520,100,1600,50,1680,54.2C1760,58,1840,117,1920,150C2000,183,2080,192,2160,191.7C2240,192,2320,183,2400,162.5C2480,142,2560,108,2640,116.7C2720,125,2800,175,2880,170.8C2960,167,3040,108,3120,75C3200,42,3280,33,3360,33.3C3440,33,3520,42,3600,41.7C3680,42,3760,33,3840,25C3920,17,4000,8,4080,25C4160,42,4240,83,4320,116.7C4400,150,4480,175,4560,183.3C4640,192,4720,183,4800,183.3C4880,183,4960,192,5040,191.7C5120,192,5200,183,5280,166.7C5360,150,5440,125,5520,104.2C5600,83,5680,67,5720,58.3L5760,50L5760,250L5720,250C5680,250,5600,250,5520,250C5440,250,5360,250,5280,250C5200,250,5120,250,5040,250C4960,250,4880,250,4800,250C4720,250,4640,250,4560,250C4480,250,4400,250,4320,250C4240,250,4160,250,4080,250C4000,250,3920,250,3840,250C3760,250,3680,250,3600,250C3520,250,3440,250,3360,250C3280,250,3200,250,3120,250C3040,250,2960,250,2880,250C2800,250,2720,250,2640,250C2560,250,2480,250,2400,250C2320,250,2240,250,2160,250C2080,250,2000,250,1920,250C1840,250,1760,250,1680,250C1600,250,1520,250,1440,250C1360,250,1280,250,1200,250C1120,250,1040,250,960,250C880,250,800,250,720,250C640,250,560,250,480,250C400,250,320,250,240,250C160,250,80,250,40,250L0,250Z"/><defs><linearGradient id="sw-gradient-2" x1="0" x2="0" y1="1" y2="0"><stop stop-color="rgba(243, 106, 62, 1)" offset="0%"/><stop stop-color="rgba(255, 179, 11, 1)" offset="100%"/></linearGradient></defs><path style="transform:translate(0, 100px); opacity:0.8" fill="url(#sw-gradient-2)" d="M0,175L40,162.5C80,150,160,125,240,116.7C320,108,400,117,480,129.2C560,142,640,158,720,141.7C800,125,880,75,960,70.8C1040,67,1120,108,1200,129.2C1280,150,1360,150,1440,137.5C1520,125,1600,100,1680,91.7C1760,83,1840,92,1920,112.5C2000,133,2080,167,2160,179.2C2240,192,2320,183,2400,179.2C2480,175,2560,175,2640,158.3C2720,142,2800,108,2880,95.8C2960,83,3040,92,3120,95.8C3200,100,3280,100,3360,120.8C3440,142,3520,183,3600,175C3680,167,3760,108,3840,91.7C3920,75,4000,100,4080,91.7C4160,83,4240,42,4320,58.3C4400,75,4480,150,4560,183.3C4640,217,4720,208,4800,183.3C4880,158,4960,117,5040,100C5120,83,5200,92,5280,116.7C5360,142,5440,183,5520,200C5600,217,5680,208,5720,204.2L5760,200L5760,250L5720,250C5680,250,5600,250,5520,250C5440,250,5360,250,5280,250C5200,250,5120,250,5040,250C4960,250,4880,250,4800,250C4720,250,4640,250,4560,250C4480,250,4400,250,4320,250C4240,250,4160,250,4080,250C4000,250,3920,250,3840,250C3760,250,3680,250,3600,250C3520,250,3440,250,3360,250C3280,250,3200,250,3120,250C3040,250,2960,250,2880,250C2800,250,2720,250,2640,250C2560,250,2480,250,2400,250C2320,250,2240,250,2160,250C2080,250,2000,250,1920,250C1840,250,1760,250,1680,250C1600,250,1520,250,1440,250C1360,250,1280,250,1200,250C1120,250,1040,250,960,250C880,250,800,250,720,250C640,250,560,250,480,250C400,250,320,250,240,250C160,250,80,250,40,250L0,250Z"/></svg>