<?xml version="1.0" standalone="no"?>
<svg xmlns:xlink="http://www.w3.org/1999/xlink" id="wave" style="transform:rotate(0deg); transition: 0.3s" viewBox="0 0 1440 100" version="1.1" xmlns="http://www.w3.org/2000/svg"><defs><linearGradient id="sw-gradient-0" x1="0" x2="0" y1="1" y2="0"><stop stop-color="rgba(243, 106, 62, 1)" offset="0%"/><stop stop-color="rgba(255, 179, 11, 1)" offset="100%"/></linearGradient></defs><path style="transform:translate(0, 0px); opacity:1" fill="url(#sw-gradient-0)" d="M0,70L40,73.3C80,77,160,83,240,81.7C320,80,400,70,480,61.7C560,53,640,47,720,46.7C800,47,880,53,960,53.3C1040,53,1120,47,1200,43.3C1280,40,1360,40,1440,45C1520,50,1600,60,1680,66.7C1760,73,1840,77,1920,65C2000,53,2080,27,2160,28.3C2240,30,2320,60,2400,66.7C2480,73,2560,57,2640,53.3C2720,50,2800,60,2880,58.3C2960,57,3040,43,3120,35C3200,27,3280,23,3360,28.3C3440,33,3520,47,3600,53.3C3680,60,3760,60,3840,65C3920,70,4000,80,4080,73.3C4160,67,4240,43,4320,28.3C4400,13,4480,7,4560,8.3C4640,10,4720,20,4800,20C4880,20,4960,10,5040,5C5120,0,5200,0,5280,5C5360,10,5440,20,5520,28.3C5600,37,5680,43,5720,46.7L5760,50L5760,100L5720,100C5680,100,5600,100,5520,100C5440,100,5360,100,5280,100C5200,100,5120,100,5040,100C4960,100,4880,100,4800,100C4720,100,4640,100,4560,100C4480,100,4400,100,4320,100C4240,100,4160,100,4080,100C4000,100,3920,100,3840,100C3760,100,3680,100,3600,100C3520,100,3440,100,3360,100C3280,100,3200,100,3120,100C3040,100,2960,100,2880,100C2800,100,2720,100,2640,100C2560,100,2480,100,2400,100C2320,100,2240,100,2160,100C2080,100,2000,100,1920,100C1840,100,1760,100,1680,100C1600,100,1520,100,1440,100C1360,100,1280,100,1200,100C1120,100,1040,100,960,100C880,100,800,100,720,100C640,100,560,100,480,100C400,100,320,100,240,100C160,100,80,100,40,100L0,100Z"/><defs><linearGradient id="sw-gradient-1" x1="0" x2="0" y1="1" y2="0"><stop stop-color="rgba(243, 106, 62, 1)" offset="0%"/><stop stop-color="rgba(255, 179, 11, 1)" offset="100%"/></linearGradient></defs><path style="transform:translate(0, 50px); opacity:0.9" fill="url(#sw-gradient-1)" d="M0,70L40,61.7C80,53,160,37,240,31.7C320,27,400,33,480,40C560,47,640,53,720,53.3C800,53,880,47,960,43.3C1040,40,1120,40,1200,48.3C1280,57,1360,73,1440,73.3C1520,73,1600,57,1680,53.3C1760,50,1840,60,1920,61.7C2000,63,2080,57,2160,51.7C2240,47,2320,43,2400,46.7C2480,50,2560,60,2640,58.3C2720,57,2800,43,2880,36.7C2960,30,3040,30,3120,25C3200,20,3280,10,3360,16.7C3440,23,3520,47,3600,58.3C3680,70,3760,70,3840,73.3C3920,77,4000,83,4080,78.3C4160,73,4240,57,4320,55C4400,53,4480,67,4560,60C4640,53,4720,27,4800,25C4880,23,4960,47,5040,55C5120,63,5200,57,5280,53.3C5360,50,5440,50,5520,56.7C5600,63,5680,77,5720,83.3L5760,90L5760,100L5720,100C5680,100,5600,100,5520,100C5440,100,5360,100,5280,100C5200,100,5120,100,5040,100C4960,100,4880,100,4800,100C4720,100,4640,100,4560,100C4480,100,4400,100,4320,100C4240,100,4160,100,4080,100C4000,100,3920,100,3840,100C3760,100,3680,100,3600,100C3520,100,3440,100,3360,100C3280,100,3200,100,3120,100C3040,100,2960,100,2880,100C2800,100,2720,100,2640,100C2560,100,2480,100,2400,100C2320,100,2240,100,2160,100C2080,100,2000,100,1920,100C1840,100,1760,100,1680,100C1600,100,1520,100,1440,100C1360,100,1280,100,1200,100C1120,100,1040,100,960,100C880,100,800,100,720,100C640,100,560,100,480,100C400,100,320,100,240,100C160,100,80,100,40,100L0,100Z"/><defs><linearGradient id="sw-gradient-2" x1="0" x2="0" y1="1" y2="0"><stop stop-color="rgba(243, 106, 62, 1)" offset="0%"/><stop stop-color="rgba(255, 179, 11, 1)" offset="100%"/></linearGradient></defs><path style="transform:translate(0, 100px); opacity:0.8" fill="url(#sw-gradient-2)" d="M0,10L40,11.7C80,13,160,17,240,23.3C320,30,400,40,480,40C560,40,640,30,720,30C800,30,880,40,960,41.7C1040,43,1120,37,1200,43.3C1280,50,1360,70,1440,76.7C1520,83,1600,77,1680,71.7C1760,67,1840,63,1920,63.3C2000,63,2080,67,2160,56.7C2240,47,2320,23,2400,18.3C2480,13,2560,27,2640,33.3C2720,40,2800,40,2880,38.3C2960,37,3040,33,3120,40C3200,47,3280,63,3360,73.3C3440,83,3520,87,3600,75C3680,63,3760,37,3840,25C3920,13,4000,17,4080,23.3C4160,30,4240,40,4320,48.3C4400,57,4480,63,4560,63.3C4640,63,4720,57,4800,60C4880,63,4960,77,5040,83.3C5120,90,5200,90,5280,88.3C5360,87,5440,83,5520,71.7C5600,60,5680,40,5720,30L5760,20L5760,100L5720,100C5680,100,5600,100,5520,100C5440,100,5360,100,5280,100C5200,100,5120,100,5040,100C4960,100,4880,100,4800,100C4720,100,4640,100,4560,100C4480,100,4400,100,4320,100C4240,100,4160,100,4080,100C4000,100,3920,100,3840,100C3760,100,3680,100,3600,100C3520,100,3440,100,3360,100C3280,100,3200,100,3120,100C3040,100,2960,100,2880,100C2800,100,2720,100,2640,100C2560,100,2480,100,2400,100C2320,100,2240,100,2160,100C2080,100,2000,100,1920,100C1840,100,1760,100,1680,100C1600,100,1520,100,1440,100C1360,100,1280,100,1200,100C1120,100,1040,100,960,100C880,100,800,100,720,100C640,100,560,100,480,100C400,100,320,100,240,100C160,100,80,100,40,100L0,100Z"/></svg>