<?xml version="1.0" standalone="no"?>
<svg xmlns:xlink="http://www.w3.org/1999/xlink" id="wave" style="transform:rotate(0deg); transition: 0.3s" viewBox="0 0 1440 310" version="1.1" xmlns="http://www.w3.org/2000/svg"><defs><linearGradient id="sw-gradient-0" x1="0" x2="0" y1="1" y2="0"><stop stop-color="rgba(243, 106, 62, 1)" offset="0%"/><stop stop-color="rgba(255, 179, 11, 1)" offset="100%"/></linearGradient></defs><path style="transform:translate(0, 0px); opacity:1" fill="url(#sw-gradient-0)" d="M0,31L40,72.3C80,114,160,196,240,196.3C320,196,400,114,480,113.7C560,114,640,196,720,211.8C800,227,880,176,960,170.5C1040,165,1120,207,1200,191.2C1280,176,1360,103,1440,62C1520,21,1600,10,1680,25.8C1760,41,1840,83,1920,93C2000,103,2080,83,2160,87.8C2240,93,2320,124,2400,134.3C2480,145,2560,134,2640,118.8C2720,103,2800,83,2880,93C2960,103,3040,145,3120,139.5C3200,134,3280,83,3360,72.3C3440,62,3520,93,3600,129.2C3680,165,3760,207,3840,201.5C3920,196,4000,145,4080,129.2C4160,114,4240,134,4320,118.8C4400,103,4480,52,4560,25.8C4640,0,4720,0,4800,36.2C4880,72,4960,145,5040,175.7C5120,207,5200,196,5280,170.5C5360,145,5440,103,5520,87.8C5600,72,5680,83,5720,87.8L5760,93L5760,310L5720,310C5680,310,5600,310,5520,310C5440,310,5360,310,5280,310C5200,310,5120,310,5040,310C4960,310,4880,310,4800,310C4720,310,4640,310,4560,310C4480,310,4400,310,4320,310C4240,310,4160,310,4080,310C4000,310,3920,310,3840,310C3760,310,3680,310,3600,310C3520,310,3440,310,3360,310C3280,310,3200,310,3120,310C3040,310,2960,310,2880,310C2800,310,2720,310,2640,310C2560,310,2480,310,2400,310C2320,310,2240,310,2160,310C2080,310,2000,310,1920,310C1840,310,1760,310,1680,310C1600,310,1520,310,1440,310C1360,310,1280,310,1200,310C1120,310,1040,310,960,310C880,310,800,310,720,310C640,310,560,310,480,310C400,310,320,310,240,310C160,310,80,310,40,310L0,310Z"/><defs><linearGradient id="sw-gradient-1" x1="0" x2="0" y1="1" y2="0"><stop stop-color="rgba(243, 106, 62, 1)" offset="0%"/><stop stop-color="rgba(255, 179, 11, 1)" offset="100%"/></linearGradient></defs><path style="transform:translate(0, 50px); opacity:0.9" fill="url(#sw-gradient-1)" d="M0,217L40,217C80,217,160,217,240,191.2C320,165,400,114,480,113.7C560,114,640,165,720,191.2C800,217,880,217,960,211.8C1040,207,1120,196,1200,206.7C1280,217,1360,248,1440,248C1520,248,1600,217,1680,175.7C1760,134,1840,83,1920,72.3C2000,62,2080,93,2160,118.8C2240,145,2320,165,2400,165.3C2480,165,2560,145,2640,155C2720,165,2800,207,2880,206.7C2960,207,3040,165,3120,144.7C3200,124,3280,124,3360,118.8C3440,114,3520,103,3600,82.7C3680,62,3760,31,3840,51.7C3920,72,4000,145,4080,175.7C4160,207,4240,196,4320,191.2C4400,186,4480,186,4560,201.5C4640,217,4720,248,4800,263.5C4880,279,4960,279,5040,248C5120,217,5200,155,5280,113.7C5360,72,5440,52,5520,77.5C5600,103,5680,176,5720,211.8L5760,248L5760,310L5720,310C5680,310,5600,310,5520,310C5440,310,5360,310,5280,310C5200,310,5120,310,5040,310C4960,310,4880,310,4800,310C4720,310,4640,310,4560,310C4480,310,4400,310,4320,310C4240,310,4160,310,4080,310C4000,310,3920,310,3840,310C3760,310,3680,310,3600,310C3520,310,3440,310,3360,310C3280,310,3200,310,3120,310C3040,310,2960,310,2880,310C2800,310,2720,310,2640,310C2560,310,2480,310,2400,310C2320,310,2240,310,2160,310C2080,310,2000,310,1920,310C1840,310,1760,310,1680,310C1600,310,1520,310,1440,310C1360,310,1280,310,1200,310C1120,310,1040,310,960,310C880,310,800,310,720,310C640,310,560,310,480,310C400,310,320,310,240,310C160,310,80,310,40,310L0,310Z"/><defs><linearGradient id="sw-gradient-2" x1="0" x2="0" y1="1" y2="0"><stop stop-color="rgba(243, 106, 62, 1)" offset="0%"/><stop stop-color="rgba(255, 179, 11, 1)" offset="100%"/></linearGradient></defs><path style="transform:translate(0, 100px); opacity:0.8" fill="url(#sw-gradient-2)" d="M0,62L40,93C80,124,160,186,240,196.3C320,207,400,165,480,170.5C560,176,640,227,720,242.8C800,258,880,238,960,201.5C1040,165,1120,114,1200,87.8C1280,62,1360,62,1440,56.8C1520,52,1600,41,1680,67.2C1760,93,1840,155,1920,170.5C2000,186,2080,155,2160,165.3C2240,176,2320,227,2400,248C2480,269,2560,258,2640,211.8C2720,165,2800,83,2880,51.7C2960,21,3040,41,3120,67.2C3200,93,3280,124,3360,129.2C3440,134,3520,114,3600,113.7C3680,114,3760,134,3840,129.2C3920,124,4000,93,4080,72.3C4160,52,4240,41,4320,36.2C4400,31,4480,31,4560,62C4640,93,4720,155,4800,180.8C4880,207,4960,196,5040,175.7C5120,155,5200,124,5280,118.8C5360,114,5440,134,5520,165.3C5600,196,5680,238,5720,258.3L5760,279L5760,310L5720,310C5680,310,5600,310,5520,310C5440,310,5360,310,5280,310C5200,310,5120,310,5040,310C4960,310,4880,310,4800,310C4720,310,4640,310,4560,310C4480,310,4400,310,4320,310C4240,310,4160,310,4080,310C4000,310,3920,310,3840,310C3760,310,3680,310,3600,310C3520,310,3440,310,3360,310C3280,310,3200,310,3120,310C3040,310,2960,310,2880,310C2800,310,2720,310,2640,310C2560,310,2480,310,2400,310C2320,310,2240,310,2160,310C2080,310,2000,310,1920,310C1840,310,1760,310,1680,310C1600,310,1520,310,1440,310C1360,310,1280,310,1200,310C1120,310,1040,310,960,310C880,310,800,310,720,310C640,310,560,310,480,310C400,310,320,310,240,310C160,310,80,310,40,310L0,310Z"/></svg>