<?xml version="1.0" standalone="no"?>
<svg xmlns:xlink="http://www.w3.org/1999/xlink" id="wave" style="transform:rotate(0deg); transition: 0.3s" viewBox="0 0 1440 250" version="1.1" xmlns="http://www.w3.org/2000/svg"><defs><linearGradient id="sw-gradient-0" x1="0" x2="0" y1="1" y2="0"><stop stop-color="rgba(243, 106, 62, 1)" offset="0%"/><stop stop-color="rgba(255, 179, 11, 1)" offset="100%"/></linearGradient></defs><path style="transform:translate(0, 0px); opacity:1" fill="url(#sw-gradient-0)" d="M0,50L40,58.3C80,67,160,83,240,87.5C320,92,400,83,480,70.8C560,58,640,42,720,62.5C800,83,880,142,960,150C1040,158,1120,117,1200,87.5C1280,58,1360,42,1440,33.3C1520,25,1600,25,1680,37.5C1760,50,1840,75,1920,87.5C2000,100,2080,100,2160,100C2240,100,2320,100,2400,108.3C2480,117,2560,133,2640,145.8C2720,158,2800,167,2880,145.8C2960,125,3040,75,3120,75C3200,75,3280,125,3360,158.3C3440,192,3520,208,3600,187.5C3680,167,3760,108,3840,108.3C3920,108,4000,167,4080,191.7C4160,217,4240,208,4320,208.3C4400,208,4480,217,4560,216.7C4640,217,4720,208,4800,191.7C4880,175,4960,150,5040,129.2C5120,108,5200,92,5280,70.8C5360,50,5440,25,5520,12.5C5600,0,5680,0,5720,0L5760,0L5760,250L5720,250C5680,250,5600,250,5520,250C5440,250,5360,250,5280,250C5200,250,5120,250,5040,250C4960,250,4880,250,4800,250C4720,250,4640,250,4560,250C4480,250,4400,250,4320,250C4240,250,4160,250,4080,250C4000,250,3920,250,3840,250C3760,250,3680,250,3600,250C3520,250,3440,250,3360,250C3280,250,3200,250,3120,250C3040,250,2960,250,2880,250C2800,250,2720,250,2640,250C2560,250,2480,250,2400,250C2320,250,2240,250,2160,250C2080,250,2000,250,1920,250C1840,250,1760,250,1680,250C1600,250,1520,250,1440,250C1360,250,1280,250,1200,250C1120,250,1040,250,960,250C880,250,800,250,720,250C640,250,560,250,480,250C400,250,320,250,240,250C160,250,80,250,40,250L0,250Z"/><defs><linearGradient id="sw-gradient-1" x1="0" x2="0" y1="1" y2="0"><stop stop-color="rgba(243, 106, 62, 1)" offset="0%"/><stop stop-color="rgba(255, 179, 11, 1)" offset="100%"/></linearGradient></defs><path style="transform:translate(0, 50px); opacity:0.9" fill="url(#sw-gradient-1)" d="M0,200L40,200C80,200,160,200,240,200C320,200,400,200,480,175C560,150,640,100,720,91.7C800,83,880,117,960,133.3C1040,150,1120,150,1200,129.2C1280,108,1360,67,1440,58.3C1520,50,1600,75,1680,75C1760,75,1840,50,1920,70.8C2000,92,2080,158,2160,170.8C2240,183,2320,142,2400,104.2C2480,67,2560,33,2640,45.8C2720,58,2800,117,2880,129.2C2960,142,3040,108,3120,83.3C3200,58,3280,42,3360,66.7C3440,92,3520,158,3600,175C3680,192,3760,158,3840,141.7C3920,125,4000,125,4080,129.2C4160,133,4240,142,4320,150C4400,158,4480,167,4560,158.3C4640,150,4720,125,4800,108.3C4880,92,4960,83,5040,79.2C5120,75,5200,75,5280,66.7C5360,58,5440,42,5520,62.5C5600,83,5680,142,5720,170.8L5760,200L5760,250L5720,250C5680,250,5600,250,5520,250C5440,250,5360,250,5280,250C5200,250,5120,250,5040,250C4960,250,4880,250,4800,250C4720,250,4640,250,4560,250C4480,250,4400,250,4320,250C4240,250,4160,250,4080,250C4000,250,3920,250,3840,250C3760,250,3680,250,3600,250C3520,250,3440,250,3360,250C3280,250,3200,250,3120,250C3040,250,2960,250,2880,250C2800,250,2720,250,2640,250C2560,250,2480,250,2400,250C2320,250,2240,250,2160,250C2080,250,2000,250,1920,250C1840,250,1760,250,1680,250C1600,250,1520,250,1440,250C1360,250,1280,250,1200,250C1120,250,1040,250,960,250C880,250,800,250,720,250C640,250,560,250,480,250C400,250,320,250,240,250C160,250,80,250,40,250L0,250Z"/><defs><linearGradient id="sw-gradient-2" x1="0" x2="0" y1="1" y2="0"><stop stop-color="rgba(243, 106, 62, 1)" offset="0%"/><stop stop-color="rgba(255, 179, 11, 1)" offset="100%"/></linearGradient></defs><path style="transform:translate(0, 100px); opacity:0.8" fill="url(#sw-gradient-2)" d="M0,225L40,225C80,225,160,225,240,225C320,225,400,225,480,216.7C560,208,640,192,720,187.5C800,183,880,192,960,175C1040,158,1120,117,1200,87.5C1280,58,1360,42,1440,54.2C1520,67,1600,108,1680,129.2C1760,150,1840,150,1920,150C2000,150,2080,150,2160,150C2240,150,2320,150,2400,145.8C2480,142,2560,133,2640,112.5C2720,92,2800,58,2880,50C2960,42,3040,58,3120,58.3C3200,58,3280,42,3360,29.2C3440,17,3520,8,3600,4.2C3680,0,3760,0,3840,37.5C3920,75,4000,150,4080,187.5C4160,225,4240,225,4320,191.7C4400,158,4480,92,4560,83.3C4640,75,4720,125,4800,145.8C4880,167,4960,158,5040,133.3C5120,108,5200,67,5280,62.5C5360,58,5440,92,5520,108.3C5600,125,5680,125,5720,125L5760,125L5760,250L5720,250C5680,250,5600,250,5520,250C5440,250,5360,250,5280,250C5200,250,5120,250,5040,250C4960,250,4880,250,4800,250C4720,250,4640,250,4560,250C4480,250,4400,250,4320,250C4240,250,4160,250,4080,250C4000,250,3920,250,3840,250C3760,250,3680,250,3600,250C3520,250,3440,250,3360,250C3280,250,3200,250,3120,250C3040,250,2960,250,2880,250C2800,250,2720,250,2640,250C2560,250,2480,250,2400,250C2320,250,2240,250,2160,250C2080,250,2000,250,1920,250C1840,250,1760,250,1680,250C1600,250,1520,250,1440,250C1360,250,1280,250,1200,250C1120,250,1040,250,960,250C880,250,800,250,720,250C640,250,560,250,480,250C400,250,320,250,240,250C160,250,80,250,40,250L0,250Z"/></svg>